<?xml version="1.0" encoding="utf-8"?>
<!-- Generator: Adobe Illustrator 27.5.0, SVG Export Plug-In . SVG Version: 6.00 Build 0)  -->
<svg version="1.1" id="Capa_1" xmlns="http://www.w3.org/2000/svg" xmlns:xlink="http://www.w3.org/1999/xlink" x="0px" y="0px"
	 viewBox="0 0 2122 2122" style="enable-background:new 0 0 2122 2122;" xml:space="preserve">
<g>
	<path style="fill:#EFD6CF;" d="M1695.944,1102.679c-22.834,7.142-46.065,12.507-69.644,16.48c-0.001,0-0.003,0-0.004,0
		c-5.796,0.977-11.618,1.851-17.453,2.667c-1.701,0.237-3.407,0.448-5.111,0.672c-4.165,0.55-8.34,1.07-12.525,1.546
		c-1.973,0.224-3.949,0.44-5.925,0.649c-4.133,0.436-8.275,0.834-12.426,1.204c-1.79,0.16-3.574,0.331-5.366,0.479
		c-5.849,0.482-11.711,0.921-17.595,1.287c-8.311,17.601-17.503,34.268-27.698,49.697c0,0-24.189,54.445-126.901,103.944
		c0.011-0.005,0.023-0.01,0.034-0.016c2.44,4.456,3.749,9.011,3.749,13.648c0,51.541-156.094,93.324-348.645,93.324
		c-192.552,0-348.645-41.783-348.645-93.324c0-4.634,1.307-9.185,3.744-13.638c-102.701-49.498-126.865-103.939-126.865-103.939
		c-22.098-33.442-39.532-72.649-53.277-114.796c-214.288,58.805-350.882,153.521-350.882,262.286
		c0,182.552,384.751,325.551,875.926,325.551s875.926-142.999,875.926-325.551
		C1926.359,1238.184,1839.598,1160.447,1695.944,1102.679z"/>
	<g>
		<path style="fill:#BA3A3B;" d="M1869.677,656.592c-39.15-22.625-98.514-28.824-155.436-26.918l0,0c-0.002,0-0.004,0-0.008,0
			c-12.158,0.407-24.201,1.18-35.916,2.248c-0.026,0.002-0.05,0.004-0.076,0.006c-3.888,0.354-7.74,0.738-11.546,1.154
			c-0.049,0.005-0.096,0.011-0.146,0.016c-3.511,0.384-6.977,0.795-10.407,1.226c-0.473,0.059-0.945,0.117-1.415,0.177
			c-3.487,0.446-6.936,0.91-10.322,1.4c-0.174,0.025-0.343,0.052-0.519,0.078c-3.053,0.445-6.051,0.908-9.011,1.383
			c-0.777,0.125-1.55,0.25-2.32,0.376c-3.096,0.509-6.157,1.029-9.134,1.568c0,0.028,0.001,0.058,0.002,0.085
			c0.001,0.038,0.003,0.078,0.003,0.116c-0.007-0.252-0.014-0.496-0.02-0.747c-0.033-1.241-0.066-2.469-0.1-3.687
			c-0.041-1.472-0.084-2.928-0.128-4.366c-0.035-1.184-0.073-2.348-0.111-3.509c-0.045-1.413-0.091-2.818-0.139-4.196
			c-0.039-1.123-0.079-2.219-0.119-3.318c-0.05-1.363-0.1-2.724-0.151-4.049c-0.04-1.05-0.083-2.064-0.124-3.09
			c-0.052-1.312-0.104-2.631-0.159-3.904c-0.043-0.986-0.085-1.928-0.128-2.89c-0.056-1.24-0.109-2.495-0.166-3.694
			c-0.039-0.829-0.078-1.61-0.117-2.419c-0.216-4.485-0.434-8.662-0.651-12.519c-0.042-0.773-0.086-1.569-0.129-2.316
			c-0.051-0.883-0.101-1.708-0.151-2.553c-0.049-0.834-0.099-1.678-0.148-2.474c-0.05-0.81-0.097-1.568-0.145-2.339
			c-0.047-0.753-0.095-1.507-0.141-2.223c-0.046-0.724-0.092-1.405-0.137-2.09c-0.046-0.701-0.092-1.393-0.138-2.054
			c-0.042-0.624-0.083-1.213-0.123-1.8c-0.044-0.627-0.087-1.235-0.128-1.819c-0.04-0.571-0.079-1.113-0.118-1.643
			c-0.037-0.519-0.073-1.01-0.109-1.489c-0.037-0.485-0.071-0.951-0.105-1.394c-0.036-0.488-0.071-0.929-0.105-1.366
			c-0.027-0.346-0.052-0.688-0.078-1.001c-0.029-0.38-0.056-0.709-0.083-1.041c-0.027-0.34-0.054-0.669-0.077-0.958
			c-0.026-0.307-0.045-0.538-0.066-0.788c-0.012-0.147-0.027-0.325-0.038-0.452c-0.063-0.749-0.1-1.157-0.1-1.16
			c0,1.137-0.088,2.27-0.231,3.4c-0.049,0.37-0.134,0.738-0.197,1.107c-0.129,0.762-0.272,1.523-0.466,2.281
			c-0.111,0.43-0.251,0.86-0.383,1.29c-0.213,0.696-0.443,1.392-0.711,2.085c-0.172,0.445-0.359,0.889-0.553,1.332
			c-0.3,0.686-0.629,1.37-0.982,2.052c-0.223,0.431-0.447,0.863-0.691,1.294c-0.405,0.711-0.852,1.421-1.313,2.129
			c-0.254,0.392-0.494,0.784-0.767,1.174c-0.584,0.836-1.223,1.668-1.887,2.499c-0.202,0.254-0.381,0.51-0.591,0.764
			c-0.902,1.089-1.871,2.172-2.908,3.25c-0.214,0.223-0.459,0.444-0.678,0.667c-0.842,0.851-1.71,1.7-2.634,2.544
			c-0.392,0.358-0.815,0.714-1.222,1.071c-0.809,0.71-1.632,1.418-2.498,2.123c-0.476,0.387-0.969,0.772-1.463,1.157
			c-0.864,0.675-1.75,1.349-2.668,2.02c-0.53,0.388-1.068,0.776-1.616,1.163c-0.964,0.68-1.961,1.356-2.979,2.031
			c-0.539,0.358-1.073,0.717-1.628,1.074c-1.157,0.743-2.36,1.482-3.581,2.219c-0.468,0.282-0.916,0.565-1.394,0.846
			c-3.478,2.05-7.204,4.074-11.175,6.071c-0.44,0.221-0.903,0.439-1.348,0.659c-1.557,0.771-3.141,1.539-4.771,2.301
			c-0.635,0.297-1.291,0.592-1.936,0.888c-1.494,0.683-3.006,1.364-4.557,2.041c-0.722,0.315-1.454,0.63-2.189,0.943
			c-1.557,0.665-3.143,1.327-4.754,1.984c-0.732,0.299-1.463,0.598-2.206,0.895c-1.75,0.7-3.537,1.395-5.35,2.086
			c-0.631,0.241-1.25,0.483-1.888,0.723c-2.234,0.84-4.515,1.673-6.839,2.5c-0.245,0.087-0.479,0.175-0.725,0.262
			c-5.287,1.871-10.81,3.708-16.548,5.512c-0.58,0.183-1.178,0.363-1.764,0.545c-2.266,0.704-4.558,1.403-6.892,2.096
			c-0.756,0.225-1.525,0.448-2.29,0.672c-2.211,0.648-4.449,1.291-6.718,1.929c-0.831,0.233-1.663,0.466-2.501,0.698
			c-2.331,0.646-4.695,1.286-7.085,1.921c-0.748,0.199-1.491,0.399-2.244,0.596c-2.716,0.713-5.471,1.418-8.261,2.117
			c-0.443,0.111-0.877,0.224-1.323,0.335c-6.716,1.672-13.64,3.305-20.765,4.895c-0.161,0.036-0.327,0.071-0.488,0.107
			c-3.293,0.733-6.632,1.457-10.01,2.173c-0.687,0.145-1.384,0.288-2.073,0.433c-2.905,0.61-5.835,1.213-8.801,1.809
			c-0.848,0.171-1.703,0.34-2.555,0.509c-2.87,0.57-5.766,1.133-8.689,1.69c-0.883,0.168-1.766,0.337-2.656,0.504
			c-3.081,0.58-6.196,1.152-9.337,1.718c-0.689,0.124-1.37,0.25-2.062,0.373c-3.828,0.683-7.693,1.357-11.605,2.019l0,0
			c-74.495,12.599-164.069,21.289-261.982,24.634l0,0c-14.669,0.501-29.523,0.884-44.54,1.142c-0.074,0.001-0.147,0.003-0.221,0.004
			c-15.035,0.257-30.236,0.39-45.581,0.39c-78.53,0-153.343-3.407-221.388-9.568c-8.507-0.77-16.906-1.583-25.195-2.438
			c-4.145-0.427-8.26-0.866-12.347-1.314c-8.175-0.896-16.236-1.833-24.177-2.811c-15.879-1.955-31.278-4.069-46.143-6.332
			c-7.434-1.132-14.735-2.301-21.898-3.505c-3.581-0.602-7.128-1.214-10.639-1.834c-7.605-1.344-15.031-2.733-22.297-4.157
			c-5.571-1.093-11.04-2.209-16.404-3.348c-3.788-0.804-7.539-1.616-11.221-2.443c-6.278-1.409-12.4-2.851-18.36-4.323
			c-15.867-3.921-30.554-8.066-44.007-12.401c-3.365-1.084-6.65-2.181-9.855-3.289c-7.28-2.518-14.145-5.096-20.571-7.732
			c-0.967-0.397-1.939-0.793-2.888-1.193c-3.1-1.307-6.077-2.629-8.96-3.962c-1.382-0.639-2.741-1.281-4.072-1.925
			c-31.058-15.039-48.341-31.672-48.341-49.172v0h-0.001c0,0-37.709,417.346,97,621.204c0,0,24.163,54.441,126.865,103.939
			c-2.437,4.453-3.744,9.004-3.744,13.638c0,51.541,156.094,93.324,348.645,93.324c192.551,0,348.645-41.783,348.645-93.324
			c0-4.637-1.31-9.192-3.749-13.648c-0.011,0.005-0.023,0.01-0.034,0.016c102.712-49.5,126.901-103.944,126.901-103.944
			c10.195-15.429,19.387-32.096,27.698-49.697c5.884-0.366,11.747-0.805,17.595-1.287c1.792-0.148,3.576-0.319,5.366-0.479
			c4.151-0.37,8.293-0.769,12.426-1.204c1.977-0.209,3.952-0.425,5.925-0.649c4.185-0.476,8.36-0.996,12.525-1.546
			c1.704-0.224,3.411-0.435,5.111-0.672c5.835-0.816,11.657-1.69,17.453-2.667c0.001,0,0.002,0,0.004,0l0,0
			c55.031-9.273,108.173-26.048,158.772-55.596c79.578-46.471,144.34-120.163,158.527-213.563
			C1955.005,774.92,1937.352,695.703,1869.677,656.592z M1588.529,1017.619c0.465-1.808,0.913-3.625,1.366-5.44
			c0.552-2.21,1.11-4.417,1.644-6.637c0.425-1.761,0.831-3.531,1.246-5.298c0.536-2.288,1.08-4.572,1.6-6.869
			c0.338-1.501,0.66-3.01,0.991-4.515c1.226-5.551,2.407-11.121,3.537-16.709c0.179-0.891,0.37-1.779,0.548-2.67
			c0.482-2.428,0.942-4.863,1.408-7.297c0.321-1.684,0.653-3.366,0.967-5.052c0.438-2.348,0.854-4.701,1.275-7.052
			c0.318-1.775,0.642-3.548,0.951-5.324c0.402-2.314,0.787-4.629,1.175-6.946c0.304-1.822,0.612-3.642,0.907-5.464
			c0.373-2.296,0.731-4.592,1.09-6.889c0.287-1.844,0.575-3.688,0.854-5.533c0.344-2.278,0.677-4.555,1.009-6.832
			c0.269-1.857,0.536-3.713,0.796-5.57c0.319-2.282,0.634-4.563,0.94-6.843c0.248-1.841,0.49-3.681,0.73-5.521
			c0.296-2.279,0.589-4.555,0.873-6.83c0.229-1.846,0.452-3.687,0.673-5.53c0.274-2.277,0.547-4.552,0.809-6.826
			c0.207-1.802,0.406-3.601,0.606-5.4c0.255-2.308,0.514-4.616,0.757-6.919c0.183-1.727,0.355-3.448,0.531-5.172
			c0.24-2.357,0.484-4.714,0.711-7.063c0.156-1.604,0.3-3.199,0.449-4.798c0.23-2.458,0.465-4.919,0.683-7.367
			c0.068-0.776,0.129-1.546,0.196-2.321c0.515-5.922,0.99-11.808,1.431-17.66c0.085-1.135,0.179-2.278,0.26-3.41
			c0.179-2.441,0.342-4.864,0.508-7.29c0.104-1.52,0.213-3.046,0.313-4.561c0.152-2.321,0.291-4.623,0.432-6.93
			c0.099-1.622,0.203-3.247,0.296-4.861c0.129-2.228,0.25-4.439,0.369-6.651c0.09-1.662,0.182-3.326,0.267-4.979
			c0.111-2.168,0.215-4.321,0.317-6.474c0.078-1.667,0.157-3.333,0.232-4.99c0.095-2.135,0.184-4.258,0.27-6.375
			c0.068-1.663,0.133-3.319,0.196-4.971c0.078-2.069,0.153-4.129,0.224-6.18c0.057-1.65,0.11-3.29,0.162-4.927
			c0.064-2.055,0.128-4.104,0.185-6.139c0.045-1.597,0.085-3.18,0.127-4.763c0.051-2.034,0.103-4.066,0.147-6.078
			c0.009-0.349,0.019-0.706,0.026-1.054c12.256-2.478,24.558-4.724,36.923-6.572c64.732-9.67,165.398-15.467,187.793,64.174
			c26.934,95.779-48.338,170.127-129.809,202.188c-40.329,15.871-85.503,27.732-130.656,31.775
			c-0.022,0.085-0.046,0.169-0.068,0.254c-0.022,0.086-0.046,0.17-0.069,0.256
			C1588.001,1019.682,1588.264,1018.65,1588.529,1017.619z"/>
		<path style="fill:#E34A41;" d="M1573.766,1003.96c-4.405,41.028-12.942,81.508-22.857,121.578
			c100.276-215.149,68.297-569.292,68.288-569.379c-0.002,38.756-84.615,73.279-216.442,95.576c0,0,113.477,8.957,151.136,72.347
			C1553.891,724.083,1595.894,797.848,1573.766,1003.96z"/>
		<path style="fill:#A61630;" d="M1879.256,807.277c-2.776-25.493-12.244-50.376-28.233-70.532
			c-17.018-21.452-41.318-38.215-67.404-46.617c-19.64-6.326-40.697-8.84-59.141-18.595c-7.364-3.895-15.044-9.666-17.13-18.189
			c-2.085-8.527,1.867-16.783,6.894-23.67c-32.471,1.087-64.149,4.802-90.819,9.633c0,0.028,0.001,0.058,0.002,0.085
			c0.329,12.779,0.555,26.731,0.613,41.649c0,0.031,0,0.062,0,0.093c0.013,3.638,0.016,7.336,0.008,11.085
			c0,0.207-0.001,0.414-0.002,0.621c-0.009,3.594-0.028,7.236-0.058,10.926c-0.002,0.294-0.005,0.588-0.007,0.883
			c-0.031,3.655-0.075,7.352-0.129,11.095c-0.005,0.291-0.008,0.579-0.013,0.871c-0.058,3.912-0.13,7.866-0.217,11.868
			c-0.001,0.052-0.001,0.103-0.002,0.155c12.257-2.477,24.56-4.725,36.927-6.572c64.732-9.67,165.398-15.467,187.793,64.174
			c26.934,95.779-48.338,170.127-129.809,202.188c-40.329,15.871-85.503,27.732-130.656,31.775
			c-0.022,0.085-0.046,0.169-0.068,0.254c-1.149,4.407-2.338,8.789-3.558,13.151c-0.297,1.064-0.609,2.118-0.911,3.178
			c-0.972,3.42-1.96,6.828-2.977,10.216c-0.374,1.246-0.759,2.484-1.139,3.726c-0.994,3.246-2.005,6.476-3.041,9.689
			c-0.387,1.2-0.778,2.395-1.17,3.59c-1.089,3.311-2.202,6.602-3.338,9.875c-0.358,1.035-0.716,2.071-1.079,3.102
			c-1.271,3.603-2.573,7.177-3.902,10.729c-0.245,0.652-0.483,1.309-0.728,1.959c-4.942,13.063-10.285,25.759-16.063,37.996
			c25.821-1.606,51.309-4.277,76.406-8.505c4.627-19.927,10.956-39.392,22.525-56.268c20.68-30.168,55.943-44.258,89.013-56.312
			c17.918-6.531,35.985-13.032,52.484-22.742c13.595-8.001,25.95-18.353,36.845-29.74c18.858-19.709,33.438-43.546,42.497-69.271
			C1878.386,860.055,1882.106,833.445,1879.256,807.277z"/>
		<ellipse style="fill:#E8D8D0;" cx="1050.433" cy="556.158" rx="568.765" ry="121.747"/>
		<path style="fill:#A61630;" d="M868.426,1120.93c2.095,17.091,5.264,34.04,8.672,50.918c3.912,19.368,9.937,37.739,21.372,54.096
			c23.932,34.235,63.696,50.793,101.64,64.49c53.249,19.223,106.581,38.281,160.497,55.566
			c-147.446,17.721-261.174-5.833-261.174-5.833c-269.636-47.607-320.765-162.807-320.765-162.807
			c-134.709-203.857-97-621.204-97-621.204c0.001,67.239,254.645,121.747,568.765,121.747c30.748,0,60.916-0.529,90.341-1.535
			c-4.118,1.743-8.239,3.475-12.351,5.146c-57.956,23.554-119.139,38.994-176.591,63.023
			c-49.973,20.901-93.149,56.264-99.466,113.264C852.366,857.804,854.331,1005.963,868.426,1120.93z"/>
		<ellipse style="fill:#E6AF9A;" cx="1050.433" cy="556.158" rx="503.458" ry="82.43"/>
		<path style="fill:#582F28;" d="M614.345,597.373c87.052,24.638,249.741,41.215,436.089,41.215
			c186.347,0,349.037-16.577,436.088-41.215c-87.052-24.638-249.741-41.215-436.088-41.215
			C864.086,556.158,701.396,572.735,614.345,597.373z"/>
		<path style="fill:#881326;" d="M1206.828,1339.202c-169.212,29.59-307.395,0.967-307.395,0.967
			c-84.277-14.88-147.206-36.363-193.9-58.868c-2.437,4.453-3.744,9.004-3.744,13.638c0,51.541,156.094,93.324,348.645,93.324
			c192.551,0,348.645-41.783,348.645-93.324c0-4.637-1.31-9.192-3.749-13.648
			C1349.634,1303.315,1288.414,1324.364,1206.828,1339.202z"/>
	</g>
	<path style="fill:#DB9F8B;" d="M1450.81,1249.53c-15.292,10.434-33.603,21.216-55.515,31.776c0.011-0.005,0.023-0.01,0.034-0.016
		c2.44,4.456,3.749,9.011,3.749,13.648c0,51.541-156.094,93.324-348.645,93.324c-192.552,0-348.645-41.783-348.645-93.324
		c0-4.634,1.307-9.185,3.744-13.638c-21.901-10.556-40.202-21.333-55.488-31.762c-28.198,20.861-44.009,44.261-44.009,68.98
		c0,87.703,198.963,158.799,444.398,158.799c245.434,0,444.397-71.097,444.397-158.799
		C1494.831,1293.795,1479.015,1270.393,1450.81,1249.53z"/>
	<path style="fill:#F8F0F2;" d="M1695.944,1102.679c-20.821,6.512-41.975,11.528-63.419,15.375
		c158.204,53.058,258.114,126.757,258.114,206.798c0,157.105-384.769,289.831-840.206,289.831s-840.206-132.726-840.206-289.831
		c0-91.201,129.682-174.179,327.561-227.754c-4.435-11.242-8.562-22.769-12.398-34.532
		c-214.288,58.805-350.882,153.521-350.882,262.286c0,182.552,384.751,325.551,875.926,325.551s875.926-142.999,875.926-325.551
		C1926.359,1238.184,1839.598,1160.447,1695.944,1102.679z"/>
	<path style="fill:#BA3A3B;" d="M1050.433,1650.403c-207.739,0-396.431-25.585-545.038-68.918v5.506
		c0,50.895,239.409,99.918,545.038,99.918s545.038-49.024,545.038-99.918v-5.506
		C1446.864,1624.818,1258.172,1650.403,1050.433,1650.403z"/>
</g>
</svg>
